<svg width="527" height="72" viewBox="0 0 527 72" fill="none" xmlns="http://www.w3.org/2000/svg">
<g clip-path="url(#clip0_219_176)">
<path d="M263.2 0H0V72H263.2V0Z" fill="white"/>
<path d="M526.4 0H263.2V72H526.4V0Z" fill="#19315B"/>
<path fill-rule="evenodd" clip-rule="evenodd" d="M36 49.5998H30.4V22.0998H36.1V31.4998H42.6V15.7998H8.5V31.4998H15V22.0998H20.6V49.5998H15V56.1998H36V49.5998ZM60.8 56.0998H73.5V49.7998H69.4V38.1998C69.4 35.2998 69.3 32.9998 68 30.9998C66.1 28.0998 62.1 26.5998 56.1 26.5998C49.4 26.5998 45.2 29.1998 44.1 33.2998L50.4 34.6998C51.7 32.9998 53.5 32.0998 55.8 32.0998C59.2 32.0998 60.7 33.8998 60.7 37.5998V39.2998C58 38.2998 55.6 37.6998 53.5 37.6998C47.3 37.6998 43.3 41.6998 43.3 47.7998C43.3 53.3998 46.8 56.7998 52.4 56.7998C55.5 56.7998 58.4 55.7998 60.7 53.9998V56.0998H60.8ZM60.8 48.4998C58.9 50.1998 57.1 51.1998 55.3 51.1998C53.3 51.1998 51.9 49.6998 51.9 47.3998C51.9 44.7998 53.4 43.3998 56 43.3998C57.6 43.3998 59.1 43.9998 60.8 45.1998V48.4998ZM80 21.8998V49.7998H76.3V56.0998H92.7V49.7998H88.7V15.7998H76.3V21.9998H80V21.8998ZM105.5 43.3998H126.2V42.8998C126.2 32.7998 120.4 26.6998 111.4 26.6998C102.4 26.6998 96.6 32.6998 96.6 41.7998C96.6 50.9998 102.6 56.8998 111.4 56.8998C118.1 56.8998 123.3 53.8998 125.4 48.7998L118.7 46.5998C117.4 49.1998 115.2 50.3998 112.4 50.3998C108.2 50.5998 105.7 47.9998 105.5 43.3998ZM105.6 38.4998C105.8 35.0998 108 32.9998 111.3 32.9998C114.6 32.9998 116.8 35.0998 117.1 38.4998H105.6ZM130.8 56.0998H147.6V49.7998H143.2V36.2998C144.7 34.9998 146.2 34.3998 147.6 34.3998C149.9 34.3998 150.7 35.7998 150.7 39.0998V56.0998H163.4V49.7998H159.3V36.8998C159.3 30.5998 156.5 27.3998 151.5 27.3998C148.5 27.3998 146 28.3998 143.1 30.1998V27.3998H130.7V33.5998H134.5V49.7998H130.7V56.0998H130.8ZM178.3 45.8998V33.5998H183.5V27.3998H178.3V16.7998L169.6 24.0998V27.3998H166.3V33.5998H169.6V48.7998C169.6 54.5998 171.3 56.8998 177.2 56.8998C179.5 56.8998 181.5 56.3998 183.5 55.3998V48.9998C182.4 49.4998 181.5 49.7998 180.7 49.7998C178.6 49.7998 178.3 48.7998 178.3 45.8998ZM196.9 43.3998H217.6V42.8998C217.6 32.7998 211.8 26.6998 202.8 26.6998C193.8 26.6998 188 32.6998 188 41.7998C188 50.9998 194 56.8998 202.8 56.8998C209.5 56.8998 214.7 53.8998 216.8 48.7998L210.1 46.5998C208.8 49.1998 206.6 50.3998 203.8 50.3998C199.5 50.5998 197.1 47.9998 196.9 43.3998ZM196.9 38.4998C197.1 35.0998 199.3 32.9998 202.6 32.9998C205.9 32.9998 208.1 35.0998 208.4 38.4998H196.9ZM244 52.3998V56.1998H256.4V49.8998H252.6V15.8998H240.2V22.0998H244V31.5998C241.4 28.8998 238.5 27.4998 235.3 27.4998C228.3 27.4998 222.9 33.5998 222.9 42.6998C222.9 51.3998 227.9 56.9998 235 56.9998C238.7 56.9998 241.7 55.3998 244 52.3998ZM238 50.3998C234.3 50.3998 231.8 47.3998 231.8 41.9998C231.8 36.6998 234.2 33.6998 238 33.6998C241.7 33.6998 244 36.6998 244 41.9998C244 47.3998 241.6 50.3998 238 50.3998Z" fill="#19315B"/>
<path fill-rule="evenodd" clip-rule="evenodd" d="M307.7 48.8H302.1V21.3H307.8V30.7H314.3V15H280.1V30.7H286.6V21.3H292.2V48.8H286.6V55.4H307.6V48.8H307.7ZM323.1 42.7C323.3 47.3 325.8 49.9 330 49.9C332.8 49.9 335 48.6 336.3 46.1L343 48.3C340.8 53.4 335.7 56.4 329 56.4C320.2 56.4 314.2 50.5 314.2 41.3C314.2 32 320 26 329 26C338 26 343.8 32.1 343.8 42.2V42.7H323.1ZM323.1 37.8H334.6C334.4 34.4 332.1 32.3 328.8 32.3C325.6 32.3 323.4 34.4 323.1 37.8ZM366.2 55.4H378.9V49.1H374.8V37.5C374.8 34.6 374.7 32.3 373.4 30.3C371.5 27.4 367.5 25.9 361.5 25.9C354.8 25.9 350.6 28.5 349.5 32.6L355.8 34C357.1 32.3 358.9 31.4 361.2 31.4C364.6 31.4 366.1 33.2 366.1 36.9V38.6C363.4 37.6 361 37 358.9 37C352.7 37 348.7 41 348.7 47.1C348.7 52.7 352.2 56.1 357.8 56.1C360.9 56.1 363.8 55.1 366.1 53.3V55.4H366.2ZM366.2 47.7C364.3 49.4 362.5 50.4 360.7 50.4C358.7 50.4 357.3 48.9 357.3 46.6C357.3 44 358.8 42.6 361.4 42.6C363 42.6 364.5 43.2 366.2 44.4V47.7ZM404.9 38.4L411.4 38.3V26.7H405.2V29.3C403 27.1 400.3 26 396.8 26C388.5 26 382.6 32.2 382.6 41.1C382.6 50.3 388.6 56.2 397.7 56.2C404.2 56.2 409.2 53.1 412.1 47.2L405.4 43.8C403.8 47.5 401.6 49.2 398.2 49.2C393.8 49.2 391.3 46.3 391.3 41.1C391.3 35.9 393.9 33 398 33C401.4 33 403.8 34.9 404.9 38.4ZM416 55.4H432.7V49.1H428.4V35.5C429.9 34.2 431.4 33.6 432.8 33.6C435.1 33.6 435.9 35 435.9 38.3V55.3H448.6V49H444.6V36.2C444.6 29.9 441.8 26.7 436.8 26.7C433.8 26.7 431.3 27.7 428.4 29.5V15H416V21.2H419.7V49.1H416V55.4ZM461.3 42.7H482V42.2C482 32.1 476.2 26 467.2 26C458.2 26 452.4 32 452.4 41.1C452.4 50.3 458.4 56.2 467.2 56.2C473.9 56.2 479.1 53.2 481.2 48.1L474.5 45.9C473.2 48.5 471 49.7 468.2 49.7C464 49.8 461.6 47.3 461.3 42.7ZM461.4 37.8C461.6 34.4 463.8 32.3 467.1 32.3C470.4 32.3 472.6 34.4 472.9 37.8H461.4ZM490.4 32.8V49H486.6V55.3H503.5V49H499V43.8C499 37.7 502 35 508.9 34.8V26C503.3 26 500 28.3 498.3 33.5V26.7H486.7V32.9H490.4V32.8Z" fill="white"/>
</g>
<defs>
<clipPath id="clip0_219_176">
<rect width="526.5" height="72" fill="white"/>
</clipPath>
</defs>
</svg>
