<svg width="112" height="112" viewBox="0 0 112 112" fill="none" xmlns="http://www.w3.org/2000/svg">
<path d="M23.2193 0C21.8933 0 20.749 0.930344 20.4786 2.22862L18.6665 10.9268H27.7722L25.9601 2.22862C25.6897 0.930344 24.5454 0 23.2193 0Z" fill="#AC80DD"/>
<path d="M34.6016 97.8862H11.8374V29.5936C11.8374 28.3364 12.8566 27.3173 14.1139 27.3173H32.3253C33.5825 27.3173 34.6018 28.3364 34.6018 29.5936L34.6016 97.8862Z" fill="#AC80DD"/>
<path d="M32.3253 27.3171H26.6343C27.8914 27.3171 28.9108 28.3362 28.9108 29.5934V97.8863H34.6018V29.5936C34.6018 28.3362 33.5827 27.3171 32.3253 27.3171Z" fill="#9D66D5"/>
<path d="M32.3251 27.3171H14.1138V20.4877C14.1138 19.2306 15.1329 18.2112 16.3903 18.2112H30.0488C31.306 18.2112 32.3251 19.2303 32.3251 20.4877V27.3171Z" fill="#B1E4F9"/>
<path d="M30.0488 112H16.3902C13.8757 112 11.8374 109.962 11.8374 107.447V97.8862H34.6016V107.447C34.6016 109.962 32.5633 112 30.0488 112Z" fill="#DDDAEC"/>
<path d="M28.9108 97.8862V107.447C28.9108 109.962 26.8724 112 24.3579 112H30.0489C32.5634 112 34.6018 109.962 34.6018 107.447V97.8862H28.9108Z" fill="#BEB9DD"/>
<path d="M30.0487 18.2114H16.3901V13.2033C16.3901 11.9461 17.4093 10.9268 18.6667 10.9268H27.7724C29.0295 10.9268 30.0489 11.9459 30.0489 13.2033V18.2114H30.0487Z" fill="#E4FBEF"/>
<path d="M88.7809 0C87.4548 0 86.3105 0.930344 86.0402 2.22862L84.228 10.9268H93.3337L91.5216 2.22862C91.251 0.930344 90.1069 0 88.7809 0Z" fill="#FFE07D"/>
<path d="M100.163 97.8862H77.3984V29.5936C77.3984 28.3364 78.4176 27.3173 79.6747 27.3173H97.8861C99.1433 27.3173 100.162 28.3364 100.162 29.5936L100.163 97.8862Z" fill="#FFE07D"/>
<path d="M97.8863 27.3171H92.1953C93.4525 27.3171 94.4716 28.3362 94.4716 29.5934V97.8863H100.163V29.5936C100.163 28.3362 99.1435 27.3171 97.8863 27.3171Z" fill="#FFD064"/>
<path d="M97.8862 27.3171H79.6748V20.4877C79.6748 19.2306 80.694 18.2112 81.9513 18.2112H95.6099C96.867 18.2112 97.8862 19.2303 97.8862 20.4877V27.3171Z" fill="#B1E4F9"/>
<path d="M95.6098 112H81.9513C79.4367 112 77.3984 109.962 77.3984 107.447V97.8862H100.163V107.447C100.163 109.962 98.1243 112 95.6098 112Z" fill="#FBF4C6"/>
<path d="M94.4718 97.8862V107.447C94.4718 109.962 92.4335 112 89.9189 112H95.6099C98.1245 112 100.163 109.962 100.163 107.447V97.8862H94.4718Z" fill="#F6E781"/>
<path d="M95.6097 18.2114H81.9512V13.2033C81.9512 11.9461 82.9703 10.9268 84.2275 10.9268H93.3332C94.5903 10.9268 95.6097 11.9459 95.6097 13.2033V18.2114Z" fill="#E4FBEF"/>
<path d="M56.0001 0C54.674 0 53.5298 0.930344 53.2594 2.22862L51.4473 10.9268H60.553L58.7408 2.22862C58.4705 0.930344 57.3262 0 56.0001 0Z" fill="#DF75A5"/>
<path d="M67.3821 97.8862H44.6177V29.5936C44.6177 28.3364 45.6368 27.3173 46.894 27.3173H65.1054C66.3625 27.3173 67.3819 28.3364 67.3819 29.5936L67.3821 97.8862Z" fill="#DF75A5"/>
<path d="M65.1056 27.3171H59.4146C60.6717 27.3171 61.6911 28.3362 61.6911 29.5934V97.8863H67.3821V29.5936C67.3821 28.3362 66.3627 27.3171 65.1056 27.3171Z" fill="#DD5790"/>
<path d="M65.1054 27.3171H46.894V20.4877C46.894 19.2306 47.9132 18.2112 49.1706 18.2112H62.8291C64.0863 18.2112 65.1054 19.2303 65.1054 20.4877V27.3171Z" fill="#B1E4F9"/>
<path d="M62.8293 112H49.1705C46.656 112 44.6177 109.962 44.6177 107.447V97.8862H67.3819V107.447C67.3821 109.962 65.3436 112 62.8293 112Z" fill="#F9C6DA"/>
<path d="M61.691 97.8862V107.447C61.691 109.962 59.6527 112 57.1382 112H62.8292C65.3437 112 67.382 109.962 67.382 107.447V97.8862H61.691Z" fill="#EFA5C3"/>
<path d="M62.8292 18.2114H49.1704V13.2033C49.1704 11.9461 50.1896 10.9268 51.4469 10.9268H60.5526C61.8098 10.9268 62.8289 11.9459 62.8289 13.2033V18.2114H62.8292Z" fill="#E4FBEF"/>
</svg>
